<svg width="1445" height="471" viewBox="0 0 1445 471" fill="none" xmlns="http://www.w3.org/2000/svg">
<path d="M235.93 283.77L234.13 285.98C228.959 292.56 222.948 298.433 216.25 303.45C209.332 308.644 201.363 312.265 192.9 314.06C185.748 315.66 178.332 315.66 171.18 314.06C166.554 313.022 162.194 311.035 158.376 308.224C154.558 305.413 151.365 301.839 149 297.73C145.562 292.022 143.26 285.702 142.22 279.12C140.743 270.078 140.407 260.886 141.22 251.76C143.529 219.517 155.798 188.788 176.33 163.82C184.128 154.33 193.56 146.311 204.18 140.14C211.452 135.922 219.41 133.017 227.69 131.56C234.548 130.299 241.599 130.551 248.35 132.3C255.09 134.222 261.22 137.848 266.15 142.83L268.15 144.83C268.97 141.83 269.78 138.95 270.6 136.1H299.26C299.23 136.559 299.23 137.02 299.26 137.48C291.75 163.61 285.26 190.07 279.17 216.53C275.99 230.24 272.89 243.88 269.17 257.35C268.44 260.29 267.7 263.23 266.89 266.09C265.492 271.118 264.508 276.252 263.95 281.44C262.631 290.376 262.083 299.41 262.31 308.44C262.525 316.003 264.075 323.467 266.89 330.49C268.364 334.087 270.494 337.38 273.17 340.2C276.345 343.438 280.639 345.338 285.17 345.51C290.554 345.7 295.903 344.581 300.76 342.25C305.851 339.981 310.583 336.983 314.81 333.35C317.5 331.06 320.2 328.77 322.97 326.65C328.217 322.725 334.446 320.323 340.97 319.71C345.539 319.298 350.13 320.203 354.2 322.32C358.376 324.376 362.686 326.15 367.1 327.63C374.985 330.261 383.305 331.341 391.6 330.81C398.209 330.468 404.625 328.47 410.26 325C411.399 324.28 412.492 323.489 413.53 322.63C415.886 320.814 417.649 318.338 418.594 315.518C419.54 312.697 419.625 309.659 418.84 306.79C418.84 304.79 417.53 302.95 416.96 300.99C416.39 299.03 415.57 296.25 415.08 293.89C414.842 292.883 414.859 291.832 415.13 290.833C415.401 289.835 415.916 288.919 416.63 288.17C418.18 286.37 419.9 284.58 421.7 282.86C423.793 280.93 425.557 278.67 426.92 276.17C428.016 274.236 428.501 272.015 428.31 269.8C428.261 268.829 427.958 267.887 427.432 267.07C426.906 266.252 426.174 265.587 425.31 265.14C423.556 264.188 421.585 263.709 419.59 263.75H413.71C416.132 263.398 418.533 262.911 420.9 262.29C424.836 261.111 428.345 258.815 431 255.68C431.863 254.756 432.421 253.589 432.6 252.337C432.779 251.085 432.569 249.809 432 248.68C431.33 247.072 430.328 245.624 429.06 244.43C428 243.29 426.78 242.23 425.72 241.08C425.012 240.457 424.433 239.7 424.018 238.852C423.602 238.005 423.358 237.084 423.298 236.143C423.239 235.201 423.365 234.257 423.671 233.364C423.977 232.471 424.456 231.648 425.08 230.94C425.278 230.715 425.492 230.505 425.72 230.31C427.581 228.483 429.588 226.811 431.72 225.31C434.33 223.26 437.11 221.39 439.88 219.31C441.993 217.678 443.864 215.755 445.44 213.6C446.625 212.243 447.278 210.502 447.278 208.7C447.278 206.898 446.625 205.157 445.44 203.8C443.714 201.749 441.856 199.811 439.88 198C434.783 193.47 430.098 188.497 425.88 183.14C422.191 178.492 419.199 173.331 417 167.82C415.4 163.219 414.52 158.399 414.39 153.53C414.198 147.73 414.332 141.925 414.79 136.14C415.106 129.785 414.165 123.43 412.02 117.44C408.231 106.339 401.481 96.4844 392.5 88.94C384.476 82.1111 375.295 76.7736 365.39 73.18C352.313 68.243 338.731 64.7652 324.89 62.81C309.908 60.703 294.768 59.9367 279.65 60.52C254.118 61.4679 228.888 66.3729 204.86 75.06C182.111 83.2018 160.804 94.9152 141.74 109.76C136.888 113.703 132.298 117.959 128 122.5C116.397 134.347 106.319 147.596 98 161.94C90.2882 175.204 84.3572 189.427 80.36 204.24C79.14 208.65 77.91 213.06 77.1 217.63C74.6133 230.866 73.707 244.35 74.4 257.8C75.3498 276.618 79.8098 295.092 87.55 312.27C97.8227 334.875 113.417 354.655 133 369.92C145.01 379.619 158.14 387.841 172.11 394.41C188.347 401.768 205.501 406.904 223.11 409.68C235.677 411.628 248.4 412.395 261.11 411.97C271.575 411.63 282.001 410.51 292.3 408.62C305.698 406.439 318.871 403.052 331.66 398.5C336.72 396.7 341.66 394.5 346.52 392.45H347.58L353.87 410.45L353.05 410.94C332.18 423.052 309.613 431.967 286.1 437.39C275.208 439.91 264.144 441.621 253 442.51C241.773 443.37 230.497 443.37 219.27 442.51C181.418 440.171 144.966 427.335 114 405.44C88.6182 387.546 68.1688 363.53 54.55 335.62C47.871 322.457 42.6565 308.601 39 294.3C34.0265 274.611 32.174 254.263 33.51 234C34.8527 214.477 38.9187 195.237 45.59 176.84C48.29 169.41 50.98 161.98 54.25 154.84C65.9455 129.943 82.6223 107.708 103.25 89.51C125.891 69.2622 152.226 53.5722 180.81 43.3C198.103 36.948 216.04 32.5115 234.3 30.07C250.791 27.6867 267.452 26.6832 284.11 27.07C302.658 27.7703 321.053 30.7013 338.9 35.8C350.416 38.9045 361.623 43.0586 372.38 48.21C386.112 54.9011 398.551 63.9711 409.12 75C419.583 85.9034 426.599 99.6499 429.29 114.52C430.51 121.846 430.51 129.324 429.29 136.65C428.381 141.825 427.999 147.078 428.15 152.33C428.371 162.693 432.311 172.631 439.25 180.33C443.33 184.99 447.42 189.48 451.74 194.05L458.2 201C459.1 201.921 459.733 203.068 460.034 204.319C460.335 205.571 460.292 206.881 459.91 208.11C459.333 210.531 458.316 212.826 456.91 214.88C453.983 219.194 450.4 223.023 446.29 226.23C443.676 228.308 440.952 230.244 438.13 232.03C437.664 232.273 437.251 232.606 436.914 233.01C436.577 233.413 436.323 233.878 436.166 234.38C436.009 234.881 435.953 235.409 436 235.932C436.047 236.456 436.196 236.964 436.44 237.43C436.62 237.8 436.86 238.138 437.15 238.43C438.614 239.992 439.849 241.752 440.82 243.66C441.725 245.445 442.237 247.403 442.322 249.402C442.406 251.401 442.061 253.395 441.31 255.25C440.493 257.454 439.276 259.488 437.72 261.25L435.27 264.03C435.038 264.365 434.913 264.763 434.913 265.17C434.913 265.577 435.038 265.975 435.27 266.31C435.76 267.31 436.17 268.31 436.58 269.25C437.722 271.829 437.868 274.74 436.99 277.42C435.794 280.925 433.73 284.069 430.99 286.56L428.55 289C426.925 290.905 425.853 293.219 425.45 295.69C425.222 297.476 425.507 299.29 426.27 300.92C426.84 302.39 427.49 303.86 428.15 305.25C429.638 308.401 430.574 311.783 430.92 315.25C431.426 319.078 430.827 322.972 429.194 326.471C427.56 329.971 424.96 332.93 421.7 335C414.904 339.59 407.181 342.628 399.08 343.9C390.983 345.237 382.743 345.483 374.58 344.63C367.805 344.09 361.069 343.139 354.41 341.78C346.673 340.401 338.704 342.098 332.2 346.51C328.029 349.109 324.214 352.238 320.85 355.82C317.275 359.619 313.366 363.09 309.17 366.19C302.915 370.897 295.739 374.236 288.11 375.99C280.043 377.841 271.584 376.83 264.18 373.13C258.899 370.507 254.225 366.808 250.46 362.27C244.959 355.443 241.004 347.504 238.87 339C235.419 326.593 233.822 313.744 234.13 300.87C234.225 295.504 234.895 290.163 236.13 284.94C236.106 284.544 236.039 284.152 235.93 283.77ZM173.14 270.71C173.094 275.781 173.587 280.843 174.61 285.81C175.444 290.16 177.196 294.281 179.75 297.9C181.289 300.054 183.419 301.716 185.882 302.686C188.344 303.657 191.035 303.894 193.63 303.37C197.979 302.632 202.125 300.99 205.8 298.55C210.391 295.574 214.588 292.029 218.29 288C226.163 279.484 232.367 269.566 236.58 258.76C246.901 233.208 254.35 206.588 258.79 179.39C259.69 173.273 259.69 167.057 258.79 160.94C258.411 156.748 257.161 152.681 255.12 149C253.918 146.764 252.231 144.826 250.182 143.327C248.133 141.829 245.775 140.808 243.28 140.34C240.153 139.73 236.937 139.73 233.81 140.34C228.194 141.527 222.936 144.017 218.46 147.61C213.573 151.471 209.23 155.975 205.55 161C198.909 169.819 193.421 179.45 189.22 189.66C183.264 204.123 178.859 219.177 176.08 234.57C173.72 246.351 172.461 258.326 172.32 270.34L173.14 270.71Z" fill="#FF5C35"/>
<path d="M548.49 198.22C554.801 186.124 564.338 176.011 576.044 169.002C587.75 161.993 601.167 158.362 614.81 158.51C627.55 158.51 638.673 161.01 648.18 166.01C657.065 170.487 664.856 176.865 671 184.69V161.16H704.8V323.16H671V299.09C665.307 306.73 657.56 313.1 647.76 318.2C637.96 323.3 626.787 325.85 614.24 325.85C600.732 325.971 587.469 322.246 576 315.11C564.277 307.796 554.769 297.424 548.5 285.11C541.74 272.27 538.357 257.713 538.35 241.44C538.343 225.167 541.723 210.76 548.49 198.22ZM664.07 212.92C659.877 205.115 653.628 198.607 646 194.1C638.684 189.824 630.354 187.59 621.88 187.63C613.253 187.553 604.768 189.825 597.334 194.203C589.9 198.581 583.797 204.899 579.68 212.48C575.067 220.62 572.763 230.287 572.77 241.48C572.777 252.673 575.08 262.473 579.68 270.88C583.861 278.867 590.175 285.537 597.92 290.15C605.175 294.483 613.469 296.768 621.92 296.76C630.384 296.789 638.7 294.544 646 290.26C653.668 285.718 659.93 279.142 664.09 271.26C668.697 262.96 671 253.207 671 242C671 230.793 668.69 221.1 664.07 212.92Z" fill="white"/>
<path d="M782.14 188.51V278.21C782.14 284.29 783.56 288.65 786.4 291.29C789.24 293.93 794.093 295.263 800.96 295.29H821.55V323.2H795.08C779.98 323.2 768.413 319.67 760.38 312.61C752.347 305.55 748.327 294.083 748.32 278.21V188.51H729.2V161.16H748.32V120.87H782.14V161.16H821.55V188.51H782.14Z" fill="white"/>
<path d="M871.1 318.94C861 314.327 853 308.053 847.1 300.12C841.304 292.424 838.019 283.129 837.69 273.5H872.39C872.983 280.373 876.27 286.11 882.25 290.71C888.23 295.31 895.727 297.613 904.74 297.62C914.153 297.62 921.457 295.807 926.65 292.18C931.843 288.553 934.443 283.887 934.45 278.18C934.45 272.1 931.557 267.59 925.77 264.65C919.983 261.71 910.827 258.493 898.3 255C888.218 252.354 878.3 249.115 868.6 245.3C860.929 242.148 854.123 237.208 848.75 230.89C843.163 224.417 840.37 215.887 840.37 205.3C840.315 196.788 842.989 188.482 848 181.6C853.087 174.453 860.387 168.817 869.9 164.69C879.413 160.563 890.343 158.503 902.69 158.51C921.117 158.51 935.97 163.177 947.25 172.51C958.53 181.843 964.557 194.54 965.33 210.6H931.83C931.663 207.245 930.79 203.963 929.268 200.968C927.747 197.974 925.611 195.333 923 193.22C917.7 188.907 910.543 186.75 901.53 186.75C892.71 186.75 885.947 188.417 881.24 191.75C879.036 193.178 877.233 195.144 875.999 197.462C874.766 199.78 874.143 202.374 874.19 205C874.153 207.044 874.553 209.072 875.363 210.948C876.174 212.825 877.376 214.506 878.89 215.88C882.209 218.933 886.11 221.283 890.36 222.79C894.867 224.457 901.533 226.563 910.36 229.11C920.237 231.618 929.928 234.812 939.36 238.67C946.874 241.888 953.562 246.767 958.92 252.94C964.4 259.213 967.24 267.547 967.44 277.94C967.556 286.775 964.883 295.422 959.8 302.65C954.7 309.903 947.493 315.587 938.18 319.7C928.867 323.813 917.937 325.873 905.39 325.88C892.623 325.86 881.193 323.547 871.1 318.94Z" fill="white"/>
<path d="M999.47 133.52C995.502 129.417 993.283 123.933 993.283 118.225C993.283 112.517 995.502 107.033 999.47 102.93C1001.46 100.913 1003.85 99.3255 1006.48 98.2644C1009.11 97.2034 1011.93 96.6914 1014.76 96.76C1017.55 96.7111 1020.32 97.2332 1022.9 98.2943C1025.48 99.3554 1027.81 100.933 1029.76 102.93C1033.73 107.033 1035.95 112.517 1035.95 118.225C1035.95 123.933 1033.73 129.417 1029.76 133.52C1027.81 135.517 1025.48 137.095 1022.9 138.156C1020.32 139.217 1017.55 139.739 1014.76 139.69C1011.93 139.759 1009.11 139.247 1006.48 138.186C1003.85 137.124 1001.46 135.537 999.47 133.52ZM1031.23 161.16V323.16H997.7V161.16H1031.23Z" fill="white"/>
<path d="M1168.13 166C1177.83 171 1185.43 177.227 1190.92 184.68V161.16H1224.74V325.85C1224.74 340.75 1221.6 354.033 1215.33 365.7C1209.11 377.304 1199.66 386.854 1188.12 393.19C1176.26 399.857 1162.1 403.19 1145.63 403.19C1123.67 403.19 1105.44 398.043 1090.93 387.75C1076.42 377.457 1068.19 363.49 1066.23 345.85H1099.46C1102 354.27 1107.44 361.083 1115.78 366.29C1124.12 371.497 1134.07 374.093 1145.63 374.08C1159.16 374.08 1170.09 369.963 1178.42 361.73C1186.75 353.497 1190.91 341.537 1190.92 325.85V298.79C1185.23 306.437 1177.53 312.86 1167.83 318.06C1158.13 323.26 1147.1 325.857 1134.75 325.85C1121.11 325.982 1107.7 322.26 1096.08 315.11C1084.29 307.828 1074.73 297.451 1068.43 285.11C1061.67 272.27 1058.29 257.713 1058.29 241.44C1058.29 225.167 1061.67 210.757 1068.43 198.21C1074.74 186.115 1084.28 176.004 1095.99 168.995C1107.69 161.987 1121.11 158.354 1134.75 158.5C1147.29 158.507 1158.42 161.007 1168.13 166ZM1184 212.92C1179.8 205.113 1173.55 198.604 1165.91 194.1C1158.6 189.826 1150.27 187.591 1141.8 187.63C1133.17 187.551 1124.68 189.823 1117.25 194.2C1109.81 198.578 1103.71 204.897 1099.59 212.48C1094.99 220.62 1092.69 230.287 1092.68 241.48C1092.67 252.673 1094.98 262.473 1099.59 270.88C1103.77 278.867 1110.08 285.537 1117.83 290.15C1125.09 294.483 1133.38 296.767 1141.83 296.76C1150.3 296.804 1158.63 294.569 1165.94 290.29C1173.61 285.748 1179.87 279.172 1184.03 271.29C1188.63 262.963 1190.93 253.207 1190.94 242.02C1190.95 230.833 1188.63 221.133 1184 212.92Z" fill="white"/>
<path d="M1379 166.45C1389.08 171.741 1397.32 179.949 1402.66 190C1408.34 200.4 1411.18 212.947 1411.19 227.64V323.2H1378V232.62C1378 218.12 1374.37 206.997 1367.12 199.25C1359.87 191.503 1349.96 187.63 1337.41 187.63C1324.86 187.63 1314.91 191.503 1307.56 199.25C1300.21 206.997 1296.54 218.12 1296.56 232.62V323.2H1263V161.2H1296.52V179.73C1302.18 172.938 1309.38 167.594 1317.52 164.14C1326.1 160.407 1335.36 158.503 1344.72 158.55C1357.47 158.523 1368.9 161.157 1379 166.45Z" fill="white"/>
</svg>
