<svg width="633" height="160" viewBox="0 0 633 160" fill="none" xmlns="http://www.w3.org/2000/svg">
<path fill-rule="evenodd" clip-rule="evenodd" d="M0 25.6L25.6 0H224V134.4L198.4 160H0V25.6ZM106.624 146.544L121.456 139.632H121.44L109.344 120.192C114.912 116.448 118.928 111.024 121.376 103.92C123.808 96.816 125.04 87.504 125.04 75.984C125.04 58.512 122.064 45.568 116.112 37.168C110.16 28.768 99.792 24.56 85.008 24.56C70.224 24.56 59.84 28.784 53.84 37.232C47.84 45.696 44.848 58.624 44.848 76.048C44.848 93.472 47.792 106.224 53.696 114.288C59.616 122.352 70.048 126.384 85.024 126.384C89.056 126.384 91.984 126.096 93.808 125.52L106.624 146.544ZM146.64 120.768C149.664 124.512 155.264 126.384 163.424 126.384C166.784 126.384 171.68 125.76 178.112 124.512L177.392 111.984L165.584 112.416C162.032 112.416 159.824 111.456 158.96 109.536C158.096 107.616 157.664 103.728 157.664 97.872V66.192H177.536V52.8H157.664V31.92H142.112V52.8H132.896V66.192H142.112V99.6C142.112 109.968 143.616 117.024 146.64 120.768ZM66.4482 47.4719C69.8082 41.5199 76.0002 38.5439 85.0242 38.5439C94.0482 38.5439 100.224 41.5199 103.536 47.4719C106.832 53.4239 108.496 62.9759 108.496 76.1279C108.496 89.2799 106.896 98.6079 103.68 104.128C100.448 109.648 94.2402 112.4 85.0242 112.4C75.8082 112.4 69.5682 109.6 66.3042 103.984C63.0402 98.3679 61.4082 89.0399 61.4082 75.9839C61.4082 62.9279 63.0882 53.4239 66.4482 47.4719Z" fill="black"/>
<path d="M318.552 87.272V73.16H346.632V123.272C344.04 123.944 338.76 124.664 330.792 125.432C322.92 126.2 317.208 126.584 313.656 126.584C298.68 126.584 288.36 122.456 282.696 114.2C277.032 105.944 274.2 93.032 274.2 75.464C274.2 57.8 277.08 44.936 282.84 36.872C288.696 28.808 298.776 24.776 313.08 24.776C321.528 24.776 331.032 25.736 341.592 27.656L346.632 28.664L346.056 41.336C334.44 39.8 324.024 39.032 314.808 39.032C305.592 39.032 299.256 41.624 295.8 46.808C292.44 51.992 290.76 61.592 290.76 75.608C290.76 89.624 292.344 99.32 295.512 104.696C298.776 109.976 305.304 112.616 315.096 112.616C322.104 112.616 327.336 112.184 330.792 111.32V87.272H318.552Z" fill="black"/>
<path d="M364.817 125V53H380.369V61.64C388.529 56.36 396.689 52.952 404.849 51.416V67.112C396.593 68.744 389.537 70.856 383.681 73.448L380.513 74.744V125H364.817Z" fill="black"/>
<path d="M420.173 60.776C425.165 54.536 433.421 51.416 444.941 51.416C456.461 51.416 464.669 54.536 469.565 60.776C474.557 67.016 477.053 76.376 477.053 88.856C477.053 101.336 474.653 110.744 469.853 117.08C465.053 123.416 456.749 126.584 444.941 126.584C433.133 126.584 424.829 123.416 420.029 117.08C415.229 110.744 412.829 101.336 412.829 88.856C412.829 76.376 415.277 67.016 420.173 60.776ZM431.981 107.576C434.189 111.416 438.509 113.336 444.941 113.336C451.373 113.336 455.693 111.416 457.901 107.576C460.109 103.736 461.213 97.448 461.213 88.712C461.213 79.976 460.013 73.784 457.613 70.136C455.309 66.488 451.085 64.664 444.941 64.664C438.797 64.664 434.525 66.488 432.125 70.136C429.821 73.784 428.669 79.976 428.669 88.712C428.669 97.448 429.773 103.736 431.981 107.576Z" fill="black"/>
<path d="M536.277 53H551.829V125H536.277V120.536C529.269 124.568 522.789 126.584 516.837 126.584C506.949 126.584 500.325 123.944 496.965 118.664C493.605 113.288 491.925 103.928 491.925 90.584V53H507.621V90.728C507.621 99.368 508.341 105.176 509.781 108.152C511.221 111.128 514.581 112.616 519.861 112.616C525.045 112.616 529.797 111.656 534.117 109.736L536.277 108.872V53Z" fill="black"/>
<path d="M570.832 155.96V53H586.384V57.464C593.008 53.432 599.2 51.416 604.96 51.416C614.464 51.416 621.424 54.344 625.84 60.2C630.256 65.96 632.464 75.704 632.464 89.432C632.464 103.064 629.92 112.664 624.832 118.232C619.84 123.8 611.632 126.584 600.208 126.584C596.272 126.584 591.712 126.152 586.528 125.288V155.96H570.832ZM602.224 65.384C597.712 65.384 593.2 66.392 588.688 68.408L586.528 69.416V111.896C590.368 112.664 594.592 113.048 599.2 113.048C605.728 113.048 610.24 111.176 612.736 107.432C615.232 103.688 616.48 97.304 616.48 88.28C616.48 73.016 611.728 65.384 602.224 65.384Z" fill="black"/>
</svg>
