<svg xmlns="http://www.w3.org/2000/svg" width="24" height="24" fill="none" viewBox="0 -50 256 256">
    <path
        d="M128,78a40,40,0,1,0,40,40A40,40,0,0,0,128,78Zm0,64a24,24,0,1,1,24-24A24,24,0,0,1,128,142Zm73.71,7.14a80,80,0,0,1-14.08,22.2,8,8,0,0,1-11.92-10.67,63.95,63.95,0,0,0,0-85.33,8,8,0,1,1,11.92-10.67,80.08,80.08,0,0,1,14.08,84.47ZM69,93.09a64,64,0,0,0,11.26,67.58,8,8,0,0,1-11.92,10.67,79.93,79.93,0,0,1,0-106.67A8,8,0,1,1,80.29,74.34,63.77,63.77,0,0,0,69,93.09ZM248,118a119.58,119.58,0,0,1-34.29,84,8,8,0,1,1-11.42-11.2,103.9,103.9,0,0,0,0-145.56A8,8,0,1,1,213.71,34,119.58,119.58,0,0,1,248,118ZM53.71,190.78A8,8,0,1,1,42.29,202a119.87,119.87,0,0,1,0-168,8,8,0,1,1,11.42,11.2,103.9,103.9,0,0,0,0,145.56Z"
        fill="white" />
</svg>
